# xmcd
#
# Track frame offsets: 
#        150
#        15245
#        35504
#        52957
#        70371
#        90028
#        110170
#        127161
#        141858
#        156291
#
# Disc length: 2352 seconds
#
# Revision: 4
# Processed by: cddbd v1.5.2PL0 Copyright (c) Steve Scherf et al.
# Submitted via: ExactAudioCopy v1.0b1
#
DISCID=81092e0a
DTITLE=譚詠麟 - 聽 [Disc 1]
DYEAR=2006
DGENRE=Pop
TTITLE0=Baby
TTITLE1=幸運星
TTITLE2=迷痴的心
TTITLE3=午夜戀人路
TTITLE4=世外情
TTITLE5=欠了你
TTITLE6=離不開的心
TTITLE7=愛你兩個人
TTITLE8=小珊瑚
TTITLE9=大大時代
EXTD=YEAR: 2006
EXTT0=
EXTT1=
EXTT2=
EXTT3=
EXTT4=
EXTT5=
EXTT6=
EXTT7=
EXTT8=
EXTT9=
PLAYORDER=
